<?xml version="1.0" standalone="no"?>
<!DOCTYPE svg PUBLIC "-//W3C//DTD SVG 20010904//EN"
 "http://www.w3.org/TR/2001/REC-SVG-20010904/DTD/svg10.dtd">
<svg version="1.0" xmlns="http://www.w3.org/2000/svg"
 width="24.000000pt" height="24.000000pt" viewBox="0 0 24.000000 24.000000"
 preserveAspectRatio="xMidYMid meet">

<g transform="translate(0.000000,24.000000) scale(0.100000,-0.100000)"
fill="#000000" stroke="none">
<path d="M40 230 c0 -6 33 -10 80 -10 47 0 80 4 80 10 0 6 -33 10 -80 10 -47
0 -80 -4 -80 -10z"/>
<path d="M85 160 c-19 -20 -24 -30 -14 -30 8 0 20 5 27 12 9 9 12 -5 12 -65 0
-45 4 -77 10 -77 6 0 10 32 10 77 0 60 3 74 12 65 7 -7 19 -12 27 -12 10 0 5
10 -14 30 -16 17 -32 30 -35 30 -3 0 -19 -13 -35 -30z"/>
</g>
</svg>
